# xmcd
#
# Track frame offsets: 
#        150
#        19152
#        38455
#        54172
#        80745
#        101275
#        117205
#        153830
#        173845
#        194227
#        206505
#        223627
#        250480
#
# Disc length: 3578 seconds
#
# Revision: 0
# Processed by: cddbd v1.5.2PL0 Copyright (c) Steve Scherf et al.
# Submitted via: ExactAudioCopy v0.99pb5
#
DISCID=aa0df80d
DTITLE=Effie Jansen - Blues In Love
DYEAR=1999
DGENRE=Jazz
TTITLE0=That Old Black Magic
TTITLE1=I'd Rather Leave While I'm In Love
TTITLE2=What'll I Do
TTITLE3=I'll Walk Alone
TTITLE4=Peel Me A Grape
TTITLE5=Kansas City
TTITLE6=The Man That Got Away
TTITLE7=Been There, Done That
TTITLE8=In A Sentimental Mood
TTITLE9=What A Little Moonlight Can Do
TTITLE10=Blues In The Night
TTITLE11=Interview With The Blues
TTITLE12=You Better Go Now
EXTD=
EXTT0=
EXTT1=
EXTT2=
EXTT3=
EXTT4=
EXTT5=
EXTT6=
EXTT7=
EXTT8=
EXTT9=
EXTT10=
EXTT11=
EXTT12=
PLAYORDER=
